<mxfile host="app.diagrams.net" agent="Mozilla/5.0 (X11; Linux x86_64; rv:129.0) Gecko/20100101 Firefox/129.0" version="24.7.7">
  <diagram name="Page-1" id="90a13364-a465-7bf4-72fc-28e22215d7a0">
    <mxGraphModel dx="3324" dy="1763" grid="1" gridSize="10" guides="1" tooltips="1" connect="1" arrows="1" fold="1" page="1" pageScale="1.5" pageWidth="1169" pageHeight="826" background="none" math="0" shadow="0">
      <root>
        <mxCell id="0" style=";html=1;" />
        <mxCell id="1" style=";html=1;" parent="0" />
        <mxCell id="2mRo7xvS9CaFnTbKlRw5-5" value="&lt;div&gt;Broker&lt;/div&gt;" style="whiteSpace=wrap;html=1;align=center;" vertex="1" parent="1">
          <mxGeometry x="700" y="540" width="400" height="130" as="geometry" />
        </mxCell>
        <mxCell id="2mRo7xvS9CaFnTbKlRw5-6" value="Acceptors" style="whiteSpace=wrap;html=1;align=center;" vertex="1" parent="1">
          <mxGeometry x="710" y="620" width="100" height="40" as="geometry" />
        </mxCell>
        <mxCell id="2mRo7xvS9CaFnTbKlRw5-8" value="Connectors" style="whiteSpace=wrap;html=1;align=center;" vertex="1" parent="1">
          <mxGeometry x="990" y="620" width="100" height="40" as="geometry" />
        </mxCell>
        <mxCell id="2mRo7xvS9CaFnTbKlRw5-9" value="&lt;div&gt;Broker&lt;/div&gt;" style="whiteSpace=wrap;html=1;align=center;" vertex="1" parent="1">
          <mxGeometry x="700" y="840" width="400" height="130" as="geometry" />
        </mxCell>
        <mxCell id="2mRo7xvS9CaFnTbKlRw5-11" style="edgeStyle=orthogonalEdgeStyle;rounded=0;orthogonalLoop=1;jettySize=auto;html=1;exitX=0.5;exitY=0;exitDx=0;exitDy=0;entryX=0.5;entryY=0;entryDx=0;entryDy=0;" edge="1" parent="1" source="2mRo7xvS9CaFnTbKlRw5-10" target="2mRo7xvS9CaFnTbKlRw5-10">
          <mxGeometry relative="1" as="geometry" />
        </mxCell>
        <mxCell id="2mRo7xvS9CaFnTbKlRw5-12" style="edgeStyle=orthogonalEdgeStyle;rounded=0;orthogonalLoop=1;jettySize=auto;html=1;entryX=0.5;entryY=1;entryDx=0;entryDy=0;startArrow=classic;startFill=1;" edge="1" parent="1" source="2mRo7xvS9CaFnTbKlRw5-10" target="2mRo7xvS9CaFnTbKlRw5-8">
          <mxGeometry relative="1" as="geometry" />
        </mxCell>
        <mxCell id="2mRo7xvS9CaFnTbKlRw5-10" value="Connectors" style="whiteSpace=wrap;html=1;align=center;" vertex="1" parent="1">
          <mxGeometry x="990" y="850" width="100" height="40" as="geometry" />
        </mxCell>
        <mxCell id="2mRo7xvS9CaFnTbKlRw5-13" value="Acceptors" style="whiteSpace=wrap;html=1;align=center;" vertex="1" parent="1">
          <mxGeometry x="710" y="850" width="100" height="40" as="geometry" />
        </mxCell>
        <mxCell id="2mRo7xvS9CaFnTbKlRw5-18" style="edgeStyle=orthogonalEdgeStyle;rounded=0;orthogonalLoop=1;jettySize=auto;html=1;startArrow=classic;startFill=1;" edge="1" parent="1" source="2mRo7xvS9CaFnTbKlRw5-15">
          <mxGeometry relative="1" as="geometry">
            <mxPoint x="710" y="640" as="targetPoint" />
          </mxGeometry>
        </mxCell>
        <mxCell id="2mRo7xvS9CaFnTbKlRw5-15" value="" style="sketch=0;outlineConnect=0;fontColor=#232F3E;gradientColor=none;fillColor=#232F3D;strokeColor=none;dashed=0;verticalLabelPosition=bottom;verticalAlign=top;align=center;html=1;fontSize=12;fontStyle=0;aspect=fixed;pointerEvents=1;shape=mxgraph.aws4.client;" vertex="1" parent="1">
          <mxGeometry x="210" y="640" width="78" height="76" as="geometry" />
        </mxCell>
        <mxCell id="2mRo7xvS9CaFnTbKlRw5-17" style="edgeStyle=orthogonalEdgeStyle;rounded=0;orthogonalLoop=1;jettySize=auto;html=1;entryX=0;entryY=0.5;entryDx=0;entryDy=0;startArrow=classic;startFill=1;" edge="1" parent="1" source="2mRo7xvS9CaFnTbKlRw5-16" target="2mRo7xvS9CaFnTbKlRw5-6">
          <mxGeometry relative="1" as="geometry" />
        </mxCell>
        <mxCell id="2mRo7xvS9CaFnTbKlRw5-16" value="" style="sketch=0;outlineConnect=0;fontColor=#232F3E;gradientColor=none;fillColor=#232F3D;strokeColor=none;dashed=0;verticalLabelPosition=bottom;verticalAlign=top;align=center;html=1;fontSize=12;fontStyle=0;aspect=fixed;pointerEvents=1;shape=mxgraph.aws4.client;" vertex="1" parent="1">
          <mxGeometry x="212" y="540" width="76" height="74.05" as="geometry" />
        </mxCell>
        <mxCell id="2mRo7xvS9CaFnTbKlRw5-19" value="&lt;br&gt;protocols:&lt;br&gt;&lt;br&gt;AMQP / MQTT / STOMP /&lt;br&gt;OPENWIRE /&lt;br&gt;CORE" style="text;html=1;align=center;verticalAlign=middle;whiteSpace=wrap;rounded=0;" vertex="1" parent="1">
          <mxGeometry x="390" y="590" width="110" height="60" as="geometry" />
        </mxCell>
        <mxCell id="2mRo7xvS9CaFnTbKlRw5-20" value="send/receive messages" style="text;html=1;align=center;verticalAlign=middle;whiteSpace=wrap;rounded=0;" vertex="1" parent="1">
          <mxGeometry x="520" y="610" width="140" height="30" as="geometry" />
        </mxCell>
        <mxCell id="2mRo7xvS9CaFnTbKlRw5-21" value="&lt;div&gt;replication&lt;/div&gt;" style="text;html=1;align=center;verticalAlign=middle;whiteSpace=wrap;rounded=0;" vertex="1" parent="1">
          <mxGeometry x="1050" y="740" width="60" height="30" as="geometry" />
        </mxCell>
      </root>
    </mxGraphModel>
  </diagram>
</mxfile>
